<svg xmlns="http://www.w3.org/2000/svg" viewBox="0 0 200 200">
  <defs>
    <linearGradient id="grad1" x1="0%" y1="0%" x2="100%" y2="100%">
      <stop offset="0%" style="stop-color:#1a1a2e;stop-opacity:1" />
      <stop offset="100%" style="stop-color:#16213e;stop-opacity:1" />
    </linearGradient>
    <linearGradient id="grad2" x1="0%" y1="0%" x2="100%" y2="0%">
      <stop offset="0%" style="stop-color:#e94560;stop-opacity:1" />
      <stop offset="100%" style="stop-color:#ff6b6b;stop-opacity:1" />
    </linearGradient>
  </defs>
  
  <!-- Background circle -->
  <circle cx="100" cy="100" r="95" fill="url(#grad1)" stroke="#e94560" stroke-width="2"/>
  
  <!-- Raven silhouette -->
  <path d="M65 120 Q55 100 70 80 Q80 60 100 55 Q120 50 140 60 Q160 75 155 95 Q150 110 140 115 L155 130 L140 125 L145 145 L125 135 L120 150 L105 135 Q90 145 75 140 Q60 135 65 120 Z" 
        fill="#e94560"/>
  
  <!-- Eye -->
  <circle cx="115" cy="80" r="8" fill="#fff"/>
  <circle cx="117" cy="79" r="4" fill="#1a1a2e"/>
  
  <!-- Forge spark effects -->
  <circle cx="50" cy="60" r="3" fill="#ff6b6b" opacity="0.8"/>
  <circle cx="150" cy="50" r="2" fill="#ff6b6b" opacity="0.6"/>
  <circle cx="160" cy="140" r="2.5" fill="#ff6b6b" opacity="0.7"/>
  <circle cx="40" cy="140" r="2" fill="#ff6b6b" opacity="0.5"/>
  
  <!-- Binary decoration -->
  <text x="30" y="180" fill="#e94560" font-family="monospace" font-size="8" opacity="0.5">01001</text>
  <text x="140" y="180" fill="#e94560" font-family="monospace" font-size="8" opacity="0.5">10110</text>
</svg>
